<svg xmlns="http://www.w3.org/2000/svg" viewBox="0 0 32 32" fill="white"><rect width="32" height="32" rx="6" fill="#181717"/><path d="M16 6.4c-5.302 0-9.6 4.298-9.6 9.6 0 4.243 2.753 7.843 6.57 9.12.48.09.656-.208.656-.462 0-.228-.008-.832-.012-1.634-2.673.58-3.236-1.29-3.236-1.29-.437-1.11-1.067-1.406-1.067-1.406-.872-.596.066-.584.066-.584.964.068 1.472.99 1.472.99.857 1.47 2.25 1.045 2.798.8.087-.62.336-1.045.61-1.286-2.134-.243-4.378-1.067-4.378-4.753 0-1.05.375-1.908.99-2.582-.1-.243-.43-1.222.093-2.548 0 0 .807-.258 2.646.984a9.21 9.21 0 0 1 2.41-.324c.818.004 1.644.11 2.41.324 1.838-1.242 2.644-.984 2.644-.984.524 1.326.194 2.305.096 2.548.618.674.99 1.532.99 2.582 0 3.694-2.247 4.507-4.388 4.747.346.298.654.888.654 1.792 0 1.294-.012 2.336-.012 2.654 0 .256.174.556.662.46C22.85 23.84 25.6 20.24 25.6 16c0-5.302-4.298-9.6-9.6-9.6z"/></svg> 