<?xml version="1.0" encoding="utf-8"?>
<svg version="1.1" id="Layer_1" xmlns="http://www.w3.org/2000/svg" xmlns:xlink="http://www.w3.org/1999/xlink" x="0px" y="0px"
	 viewBox="0 0 5000 4999.558" enable-background="new 0 0 5000 4999.558" xml:space="preserve">
<g>
	<path d="M4137.473,3805.46c717.107-889.198,583.038-2237.262-354.93-2961.544c-932.427-715.034-2260.369-543.452-2973.811,420.076
		c-526.014,721.16-526.413,1668.347-66.771,2374.722C1540.376,4851.907,3252.429,4912.379,4137.473,3805.46z M1605.703,4356.906
		c-82.491-39.974-158.566-82.946-250.591-143.508c-18.792-12.016-81.138-56.639-94.258-66.987
		c-160.761-123.283-279.907-241.064-407.684-407.684c-11.069-14.033-55.485-76.27-66.987-94.258
		c-60.597-92.08-103.265-167.544-143.508-250.591c-268.02-557.26-274.824-1216.935,0-1788.339
		c54.203-111.855,108.232-199.978,176.272-298.235c135.945-186.346,249.538-300.446,407.505-427.881
		c602.704-478.046,1449.369-582.349,2167.592-236.913c90.956,44.076,167.161,88.604,250.591,143.508
		c18.523,11.845,80.699,56.293,94.258,66.987c160.76,123.283,279.907,241.063,407.684,407.684
		c10.838,13.74,55.34,76.042,66.988,94.258c60.6,92.085,103.265,167.544,143.508,250.591
		c341.326,709.675,247.242,1557.159-236.914,2167.592c-126.868,157.259-240.833,271.052-427.881,407.504
		c-98.731,68.369-186.428,122.091-298.235,176.271C2839.479,4623.629,2179.339,4632.802,1605.703,4356.906z"/>
	<path d="M4937.409,1943.537c-125.46-557.879-445.594-1053.233-878.908-1398.119c-62.823-50.497-142.35-106.62-169.624-124.228
		c-103.916-68.402-195.407-121.488-304.071-174.104C2714.827-171.545,1680.404-49.15,941.253,545.418
		C190.816,1142.689-150.392,2116.496,62.335,3055.882c161.909,719.951,651.14,1356.8,1352.603,1696.451
		c674.333,324.486,1474.227,334.739,2169.867,0C4630.602,4245.954,5196.962,3089.364,4937.409,1943.537z M4904.472,3048.393
		c-122.208,543.722-434.418,1034.887-867.049,1379.211c-61.094,49.121-139.9,104.882-167.334,122.548
		c-111.119,73.131-201.1,123.881-299.952,171.754c-861.079,414.284-1880.121,290.341-2607.815-294.302
		C225.24,3840.973-115.46,2881.554,95.272,1951.016c161.66-718.887,649.995-1342.203,1334.345-1673.503
		c658.056-316.722,1447.722-333.403,2140.519,0C4603.159,777.668,5160.221,1919.133,4904.472,3048.393z"/>
	<path d="M4728.378,2432.991l33.767-0.99c0.422,8.497,0.349,9.336,1.09,67.704h168.854c-1.512-121.271-5.854-206.054-21.868-326.319
		l-200.831,26.948c-2.762-19.732-6.237-46.925-15.439-98.881l33.247-5.989c1.329,7.302,9.797,57.767,10.979,66.834l166.994-24.958
		c-15.51-100.095-35.323-200.035-70.233-319.76l-194.521,56.735c-4.771-16.043-15.155-52.004-30.097-95.401l31.957-10.909
		c2.637,7.416,18.678,56.844,20.908,64.384l161.375-49.715c-28.389-94.73-75.988-216.614-117.469-305.571l-183.802,85.282
		c-6.375-13.626-19.989-43.5-44.116-89.782l29.967-15.589c11.288,21.75-4.436-9.678,30.437,60.484l152.076-73.373
		c-48.609-97.833-100.252-192.278-161.885-284.433l-169.004,111.779c-34.716-52.148-49.221-71.433-57.075-82.212l27.317-19.878
		c13.489,18.108,26.198,36.776,39.076,55.325l139.427-95.241c-64.613-93.168-113.424-157.109-202.231-257.196l-150.536,135.627
		c-22.398-24.718-45.186-49.095-68.654-72.793l24.058-23.708c37.214,38.095,20.026,20.384,46.786,48.945l123.748-114.879
		c-74.073-80.142-153.945-154.836-237.998-224.419l-128.788,156.435c-48.021-38.653-31.1-25.376-78.663-61.834l20.278-27.017
		c47.779,36.648,36.649,27.978,53.475,41.536l105.36-131.948c-57.287-45.944-126.31-95.373-165.044-120.879
		c-27.116-17.853-77.531-50.504-103.74-65.684l-104.09,173.844c-13.318-7.871-48.626-29.066-86.972-49.515l16.039-29.727
		c6.923,3.603,52.412,29.045,59.125,33.027l84.562-146.146c-88.758-52.304-213.869-112.644-293.802-144.347l-76.913,187.462
		c-26.346-10.766-71.697-28.543-93.361-35.897l11.389-31.797c20.656,7.325,6.415,2.036,63.414,23.708l61.734-157.165
		c-0.17-0.064-71.79-27.8-115.469-41.956c-61.698-20.033-123.251-39.186-196.721-56.665l-47.885,196.882
		c-38.041-9.275-71.307-16.405-97.701-21.448l6.49-33.147c22.994,4.397,9.122,1.494,66.254,13.929l37.427-164.645
		c-108.324-23.548-198.656-39.608-323.32-50.735l-17.938,201.841c-47.176-4.203-91.355-6.46-99.871-6.679l1.49-33.747
		c22.223,0.946-3.418-0.588,67.634,3.91l12.439-168.394c-102.299-6.124-198.514-10.362-326.969-2.31l11.929,202.281
		c-8.454,0.535-50.749,2.9-99.741,8.009l-3.49-33.597c7.794-0.876,59.592-5.474,67.444-5.989l-12.449-168.394
		c-106.638,8.589-175.615,17.632-283.853,37.956c-13.409,2.55-26.818,5.069-40.136,8.099l41.936,198.241
		c-7.551,1.642-55.023,11.661-97.401,22.818l-8.479-32.697c6.584-1.731,57.265-14.192,65.794-15.969l-37.427-164.645
		c-106.602,24.841-209.19,54.584-313.571,94.101l71.223,189.692c-31.267,11.629-62.164,24.218-92.881,37.236l-13.289-31.057
		c8.882-4.014,57.692-23.812,62.644-25.758l-61.734-157.165c-106.623,42.062-215.922,94.428-295.852,140.127l98.841,176.893
		c-26.174,14.621-66.746,38.29-86.232,50.735l-17.778-28.717c18.381-11.482,9.573-6.206,58.045-34.857l-84.562-146.146
		c-106.72,63.105-172.272,106.548-271.525,182.583l124.058,160.205c-37.675,28.961-69.366,56.029-77.703,63.034l-21.858-25.748
		c29.743-25.026,12.581-11.082,52.265-43.046l-105.36-131.948c-110.662,89.294-163.054,140.633-241.467,220.689l146.436,140.047
		c-40.781,42.946-51.355,55.883-67.504,73.903l-25.428-22.228c15.009-16.868,29.827-33.917,45.386-50.285L717.064,845.459
		c-53.663,56.519-130.791,148.444-206.091,254.106l165.594,116.769c-32.588,47.332-13.02,17.785-55.885,83.002l-28.447-18.208
		c28.561-43.479,31.471-48.025,37.426-56.425l-139.427-95.241c-61.186,90.26-117.33,184.346-165.944,282.053l181.153,90.782
		c-23.544,47.358-39.34,82.184-42.826,90.401l-30.847-13.749c3.951-9.308,6.41-14.456,28.407-61.454l-152.086-73.373
		c-47.096,98.501-88.372,199.881-121.819,303.861l192.722,62.584c-9.046,27.84-23.168,74.237-28.757,95.831l-32.567-8.969
		c5.311-19.589,1.853-7.783,18.888-65.044l-161.365-49.715c-17.138,57.842-11.89,38.809-28.037,98.481
		c-12.492,45.482-34.401,142.189-46.836,220.239l199.931,32.957c-4.479,27.029-11.721,76.274-14.069,99.051l-33.547-3.99
		c2.338-20.374,0.749-8.63,8.929-67.114l-166.994-24.958c-15.838,108-25.198,216.98-26.467,326.02l202.611,2.98
		c-0.604,46.871,0.221,91.586,0.65,100.081l-33.757,1c-0.433-8.561-0.369-10.146-1.1-67.714H67.655
		c1.341,107.528,4.693,197.315,21.868,326.33l200.831-26.948c2.928,20.913,6.884,50.583,15.439,98.881l-33.247,5.989
		c-1.189-6.54-9.902-58.574-10.979-66.834l-166.994,24.958c15.983,103.145,36.034,202.471,70.233,319.76l194.522-56.735
		c4.249,14.285,16.136,54.869,30.097,95.391l-31.957,10.919c-2.671-7.54-18.651-56.763-20.908-64.394l-161.365,49.725
		c24.191,80.863,67.681,198.763,117.459,305.571l183.803-85.292c7.22,15.43,19.268,41.939,44.116,89.792l-29.967,15.578
		c-9.327-17.936,2.608,6.034-30.427-60.474l-152.086,73.373c46.724,94.037,97.626,188.363,161.885,284.423l169.014-111.78
		c31.262,47.131,47.629,69.272,57.065,82.222l-27.307,19.868c-13.499-18.108-26.208-36.776-39.086-55.325l-139.427,95.241
		c71.604,103.247,117.715,161.924,202.231,257.206l150.546-135.637c22.398,24.718,45.176,49.095,68.644,72.803l-24.058,23.708
		c-37.705-38.63-20.293-20.676-46.776-48.945L717.064,4153.95c74.083,80.142,153.946,154.845,238.008,224.429l128.778-156.445
		c47.218,38.025,30.217,24.69,78.663,61.844l-20.278,27.007c-47.667-36.544-37.772-28.882-53.475-41.526l-105.36,131.948
		c89.689,71.886,199.565,146.473,268.785,186.562l104.09-173.854c28.895,17.09,57.232,33.676,86.972,49.516l-16.028,29.737
		c-7.062-3.672-52.315-28.984-59.135-33.037l-84.562,146.156c83.545,49.233,210.782,111.419,293.802,144.347l76.913-187.462
		c43.244,17.671,83.029,32.388,93.371,35.896l-11.399,31.787c-19.424-6.88-6.414-2.026-63.414-23.698l-61.734,157.165
		c42.136,15.859,61.162,24.323,154.426,54.605c52.115,16.289,104.64,31.377,157.765,44.016l47.886-196.892
		c52.873,12.925,76.448,17.381,97.701,21.458l-6.49,33.147c-22.114-4.242-9.516-1.589-66.254-13.938l-37.427,164.654
		c111.246,24.184,199.832,39.759,323.32,50.726l17.938-201.831c22.971,2.045,77.048,6.091,99.87,6.679l-1.49,33.747
		c-21.946-0.934,1.932,0.494-67.624-3.91l-12.449,168.394c80.606,4.795,181.4,11.437,326.979,2.31l-11.939-202.281
		c8.781-0.556,50.894-2.916,99.74-8.009l3.49,33.587c-7.838,0.888-59.589,5.477-67.434,6l12.439,168.394
		c111.089-8.948,155.988-16.142,243.607-30.387c9.5-1.639,62.767-11.662,80.382-15.668l-41.936-198.242
		c15.93-3.469,56.684-12.099,97.401-22.817l8.479,32.697c-7.341,1.929-56.332,13.987-65.794,15.958l37.427,164.654
		c107.752-25.109,209.066-54.537,313.571-94.101l-71.224-189.702c31.267-11.619,62.164-24.218,92.882-37.227l13.289,31.047
		c-8.837,3.993-57.115,23.595-62.644,25.768l61.734,157.165c110.934-43.762,222.426-98.126,295.852-140.137l-98.841-176.884
		c39.282-21.961,75.051-43.593,86.232-50.735l17.778,28.717c-19.366,12.084-8.009,5.272-58.044,34.847l84.562,146.156
		c100.176-59.21,166.985-102.498,271.525-182.583l-124.058-160.215c42.381-32.546,76.277-61.835,77.703-63.034l21.858,25.758
		c-30.324,25.48-11.312,10.06-52.265,43.046l105.36,131.948c107.137-86.483,162.251-139.887,241.478-220.689l-146.446-140.047
		c40.005-42.129,52.243-56.87,67.503-73.913l25.428,22.238c-15.008,16.868-29.817,33.917-45.375,50.285l123.748,114.869
		c24.948-26.262,57.902-64.501,81.243-92.022c46.515-55.19,83.063-103.44,124.848-162.075l-165.594-116.779
		c32.735-47.546,12.733-17.339,55.884-82.992l28.448,18.208c-28.496,43.379-31.508,48.076-37.427,56.415l139.427,95.241
		c64.74-95.502,119.244-188.171,165.955-282.053l-181.164-90.771c19.47-39.176,37.543-77.946,42.826-90.412l30.857,13.759
		c-3.99,9.378-6.031,13.595-28.408,61.454l152.076,73.373c47.096-98.501,88.372-199.881,121.819-303.872l-192.722-62.574
		c14.549-44.792,26.206-85.975,28.758-95.841l32.566,8.969c-5.221,19.271-1.956,8.147-18.888,65.044l161.375,49.725
		c28.061-94.826,55.725-198.592,74.863-318.72l-199.932-32.957c7.355-44.274,12.721-85.975,14.069-99.051l33.547,3.99
		c-2.27,19.882-0.655,7.957-8.929,67.114l166.994,24.958c15.838-108,25.198-216.98,26.468-326.02l-202.611-2.98
		C4729.688,2481.829,4728.743,2440.235,4728.378,2432.991z M4654.525,2075.184c10.818,53.675,18.898,107.88,25.498,162.235
		l201.241-23.948c9.879,83.142,15.409,166.764,16.628,250.417l-101.311,1.48c-0.23-11.449-0.11-22.918-0.68-34.357l67.523-1.99
		c-1.939-50.992-4.466-109.425-11.688-176.404l-201.542,20.938c-7.829-75.093-19.578-149.736-35.216-223.559l99.11-20.958
		c4.011,18.728,1.626,6.483,6.729,33.157L4654.525,2075.184z M4567.433,1758.844c18.758,51.435,34.817,103.81,49.505,156.525
		l195.392-53.805c22.218,80.762,40.177,162.695,53.795,245.317l-99.98,16.479c-1.91-11.299-3.649-22.618-5.709-33.897l66.484-11.979
		c-10.549-58.035-23.348-115.629-37.917-172.784l-196.142,50.845c-18.978-73.023-41.806-145.046-68.344-215.67l94.831-35.607
		c7.224,18.994,4.552,11.691,11.679,31.787L4567.433,1758.844z M4433.875,1459.122c18.111,34.445,52.251,99.722,72.414,147.366
		l185.092-82.532c34.077,76.513,64.134,154.815,90.002,234.488l-96.381,31.287c-3.6-10.879-6.93-21.848-10.759-32.647l63.934-21.828
		c-19.028-55.845-40.446-110.84-63.464-165.145l-186.293,79.723c-31.062-70.245-61.353-135.062-99.89-203.011l88.432-49.405
		c5.439,9.889,11.168,19.628,16.378,29.647L4433.875,1459.122z M4256.942,1182.638c32.757,43.896,64.004,88.912,93.681,134.937
		l170.684-109.26c45.085,70.553,86.492,143.467,123.998,218.35l-90.601,45.396c-14.647-29.466-6.815-13.726-15.599-30.627
		l59.934-31.167c-28.65-54.169-50.068-93.445-87.432-153.726l-172.284,106.67c-39.747-64.154-82.853-126.258-129.048-185.963
		l80.092-62.024l20.588,26.858L4256.942,1182.638z M4040.793,935.561c41.602,41.261,65.094,65.91,112.659,119.529l152.565-133.398
		c44.024,48.665,124.463,151.96,155.176,197.321l-82.802,58.395c-6.419-9.499-13.399-18.598-20.079-27.897l54.615-39.756
		c-22.566-31.585-63.464-84.78-109.29-138.987l-154.515,131.088c-48.835-57.575-100.651-112.629-155.176-164.865l70.013-73.213
		l24.238,23.668L4040.793,935.561z M3919.564,824.731l131.118-154.536c63.834,54.155,124.858,111.6,182.773,172.054l-73.233,70.033
		l-24.018-24.598l48.125-47.406c-52.863-53.476-84.552-82.14-128.688-121.299l-133.377,152.536
		c-32.243-28.042-66.405-56.479-99.911-82.202c-35.679-27.356-69.64-52.078-78.013-57.725l58.385-82.782
		c9.349,6.319,18.318,13.189,27.487,19.778l-39.756,54.625C3843.961,762.205,3877.085,788.995,3919.564,824.731z M3654.169,631.58
		l106.69-172.294c71.183,44.096,140.047,91.901,206.25,143.127l-62.034,80.122l-27.288-20.918l40.566-54.015
		c-47.246-35.277-95.701-68.914-145.257-100.861l-109.25,170.654c-63.614-40.636-129.328-77.953-196.802-111.74l45.385-90.571
		c29.717,14.77,13.032,6.476,30.147,15.359l-31.167,59.934C3565.18,578.809,3602.466,599.508,3654.169,631.58z M3363.016,480.124
		l79.732-186.313c76.983,32.997,152.226,70.033,225.329,110.88l-49.426,88.452c-10.039-5.52-19.928-11.329-30.087-16.619
		l32.057-59.464c-51.865-28.067-104.96-53.815-158.735-78.013l-82.523,185.073c-68.933-30.697-139.457-57.775-211.22-81.062
		l31.287-96.351c10.719,3.55,21.518,6.829,32.157,10.599l-21.828,63.924C3261.586,438.888,3312.611,458.776,3363.016,480.124z
		 M3052.515,374.054l50.855-196.172c81.072,21.068,161.035,46.406,239.448,75.873l-35.617,94.861
		c-19.282-7.332-11.869-4.619-32.267-11.859l22.788-63.584c-55.435-20.198-111.869-37.537-168.694-53.355l-53.795,195.352
		c-80.708-22.548-154.662-37.228-220.969-48.455l16.479-99.951c11.129,1.88,22.288,3.6,33.397,5.62l-11.989,66.484
		C2934.078,346.899,2990.397,357.747,3052.515,374.054z M2729.555,315.819l20.938-201.571
		c83.272,8.679,166.115,21.718,248.047,39.066l-20.968,99.141c-19.138-4.101-6.562-1.652-33.687-6.839l12.989-66.294
		c-57.825-11.629-116.189-20.358-174.714-27.457l-23.948,201.201c-74.953-8.909-150.396-13.899-225.939-14.999l1.48-101.291
		c11.279,0.22,22.568,0.1,33.837,0.66l-1.98,67.524C2584.843,305.691,2654.293,307.69,2729.555,315.819z M2401.286,306.21
		l-8.939-202.461c83.592-3.67,167.324-3.06,250.876,1.87l-5.969,101.15c-27.748-1.747-14.739-0.969-34.327-1.79l2.98-67.484
		c-94.771-3.583-165.621-1.868-176.733-1.34l5.959,202.541c-75.513,2.23-150.866,8.359-225.669,18.418l-13.479-100.401
		c20.135-2.784,12.418-1.822,33.597-4.24l7.989,67.084C2291.906,312.759,2346.581,308.85,2401.286,306.21z M2075.357,345.046
		l-38.946-198.881c82.192-16.079,165.214-27.837,248.597-35.237l8.969,100.93c-11.409,1.07-22.848,1.89-34.227,3.17l-6.979-67.184
		c-58.655,6.129-117.049,14.619-175.144,24.818l35.957,199.421c-63.215,12.102-132.004,25.782-220.189,51.895l-28.367-97.251
		c19.487-5.76,12-3.654,32.587-9.219l17.938,65.124C1962.925,369.408,2025.335,354.629,2075.357,345.046z M1759.026,432.138
		l-68.374-190.772c78.863-28.237,159.215-52.315,240.597-72.113l23.948,98.461c-11.119,2.76-22.288,5.339-33.367,8.249
		l-16.948-65.394c-57.085,14.859-113.559,31.977-169.444,50.835l65.474,191.762c-71.383,24.418-141.487,52.605-209.93,84.372
		l-42.636-91.881c10.229-4.76,20.398-9.649,30.777-14.059l27.517,61.694C1677.992,462.074,1733.829,440.712,1759.026,432.138z
		 M1317.728,648.958c46.186-29.407,93.441-57.115,141.547-83.252l-96.181-178.373c73.733-39.696,149.546-75.543,227.039-107.33
		l38.466,93.751c-10.589,4.4-21.288,8.499-31.737,13.219l-26.578-62.104c-47.534,20.799-113.998,50.857-159.865,75.683
		l93.481,179.773c-66.934,34.847-132.057,73.193-195.022,114.829l-55.885-84.492l28.307-18.598L1317.728,648.958z M1055.262,846.119
		c59.663-51.889,93.629-77.471,127.558-103.49l-121.679-162.055c66.874-50.365,136.577-96.971,208.41-139.987l52.045,86.932
		c-16.619,9.931-4.136,2.174-29.347,17.898l-35.557-57.435c-52.932,33.407-88.008,55.822-146.786,98.681l119.239,163.835
		c-86.53,63.055-135.017,106.425-175.874,142.507l-67.814-75.263l25.338-22.478L1055.262,846.119z M824.884,1080.027
		c35.467-41.726,72.243-82.392,110.86-121.249L791.377,816.552c58.745-59.624,120.499-116.309,185.163-169.474l64.394,78.233
		c-8.829,7.289-17.518,14.759-26.288,22.138l-43.706-51.515c-44.916,38.176-88.662,77.763-130.488,119.309l142.207,144.346
		c-53.775,52.985-104.92,108.67-152.876,166.994l-78.203-64.374c7.179-8.699,14.539-17.258,21.798-25.888L824.884,1080.027z
		 M631.742,1345.423c31.287-49.52,51.852-81.76,91.621-136.287l-163.855-119.249c49.265-67.694,102.04-132.808,158.035-195.032
		l75.273,67.824l-22.808,25.708l-50.855-44.466c-38.676,44.486-75.983,90.182-111.4,137.317l162.035,121.669
		c-45.426,60.304-87.422,123.158-126.198,187.902l-86.912-52.035c9.563-16.049,2.797-5.158,17.628-28.917L631.742,1345.423z
		 M480.296,1636.555c10.783-24.391,31.261-73.353,70.253-148.396l-179.793-93.501c38.666-74.283,81.212-146.536,127.388-216.37
		l84.512,55.895l-18.868,28.737l-56.885-36.427c-31.687,49.745-61.544,100.641-89.682,152.476l178.353,96.171
		c-31.758,60.393-66.218,127.59-96.691,204.541l-93.711-38.446c4.33-10.419,8.369-20.968,13.019-31.257L480.296,1636.555z
		 M308.832,1930.128l65.384,16.948c13.799-52.985,29.697-105.4,47.186-157.275l-191.782-65.484
		c27.107-79.263,58.395-157.075,93.661-233.048l91.911,42.656c-4.82,10.389-9.789,20.718-14.279,31.267l-61.694-27.507
		c-20.273,46.369-49.474,116.038-65.884,164.165l190.752,68.354c-25.428,71.033-47.116,143.396-64.944,216.71l-98.431-23.938
		C303.423,1952.026,305.962,1941.037,308.832,1930.128z M248.798,2263.057l67.184,6.979c5.699-54.465,13.599-108.67,23.048-162.595
		l-199.441-35.957c14.898-82.412,34.137-164.055,57.615-244.457l97.271,28.367c-5.844,19.775-3.706,12.175-9.359,33.077
		l-65.134-17.938c-15.928,56.795-29.037,114.349-40.496,172.184l198.851,38.946c-14.489,74.053-25.088,148.886-31.767,224.089
		l-100.901-8.969C246.728,2285.544,247.528,2274.276,248.798,2263.057z M306.372,2598.285c-3.301-87.471-1.819-153.004-1.24-164.324
		l-202.571-5.959c2.47-83.632,9.259-167.174,20.418-250.167l100.431,13.479c-2.832,20.434-1.854,12.601-4.31,34.107l-67.074-7.989
		c-7.299,58.535-11.539,117.379-14.369,176.253l202.431,8.939c-2.54,66.989-3.847,139.677,1.69,226.499l-101.121,5.959
		c-1.809-28.315-0.905-13.497-1.77-33.817L306.372,2598.285z M345.219,2924.235c-10.819-53.675-18.888-107.88-25.498-162.235
		l-201.241,23.948c-9.879-83.142-15.409-166.774-16.628-250.417l101.32-1.49c0.22,11.459,0.1,22.918,0.67,34.367l-67.524,1.98
		c1.86,48.903,4.376,108.56,11.689,176.413l201.541-20.938c7.829,75.083,19.578,149.736,35.217,223.549l-99.111,20.968
		c-4.057-18.98-1.523-5.963-6.729-33.157L345.219,2924.235z M432.311,3240.565c-18.758-51.425-34.817-103.801-49.505-156.515
		l-195.382,53.805c-22.228-80.762-40.186-162.695-53.805-245.317l99.981-16.489c1.91,11.299,3.65,22.628,5.709,33.897
		l-66.484,11.989c10.559,58.025,23.348,115.629,37.916,172.784l196.142-50.845c18.978,73.023,41.806,145.036,68.344,215.66
		l-94.831,35.617c-7.223-18.994-4.552-11.691-11.679-31.787L432.311,3240.565z M565.868,3540.297
		c-20.61-39.198-52.914-101.29-72.413-147.366l-185.093,82.532c-34.077-76.513-64.134-154.815-90.002-234.488l96.381-31.297
		c3.6,10.879,6.929,21.848,10.759,32.647l-63.924,21.828c19.028,55.845,40.446,110.85,63.464,165.155l186.283-79.722
		c31.2,70.509,61.333,135.05,99.901,203.001l-88.442,49.415c-5.439-9.899-11.159-19.628-16.368-29.647L565.868,3540.297z
		 M742.802,3816.771c-32.747-43.896-64.004-88.902-93.681-134.927l-170.684,109.26c-45.086-70.563-86.492-143.467-123.988-218.35
		l90.591-45.396c14.659,29.49,6.804,13.704,15.599,30.627l-59.934,31.167c28.642,54.154,50.604,94.443,87.442,153.726
		l172.274-106.68c39.756,64.164,82.852,126.258,129.048,185.972l-80.093,62.024l-20.588-26.858L742.802,3816.771z M958.961,4063.848
		c-44.335-43.789-71.38-72.974-112.669-119.519l-152.566,133.397c-44.797-49.583-123.918-151.285-155.175-197.322l82.812-58.395
		c6.419,9.489,13.389,18.598,20.068,27.897l-54.615,39.746c22.738,31.838,63.305,84.57,109.29,138.997l154.516-131.097
		c48.835,57.584,100.651,112.639,155.175,164.874l-70.013,73.203l-24.238-23.658L958.961,4063.848z M1080.18,4174.688
		l-131.118,154.525c-63.834-54.145-124.858-111.6-182.763-172.044l73.223-70.033l24.018,24.588l-48.125,47.416
		c53.917,54.437,84.321,81.921,128.688,121.298l133.377-152.545c32.717,28.455,66.55,56.574,99.911,82.212
		c23.423,17.959,64.808,48.803,78.013,57.725l-58.375,82.782c-9.359-6.319-18.328-13.199-27.497-19.788l39.756-54.615
		C1155.284,4236.824,1122.461,4210.216,1080.18,4174.688z M1345.575,4367.84l-106.69,172.293
		c-71.173-44.106-140.047-91.901-206.251-143.137l62.044-80.112l27.277,20.908l-40.566,54.025
		c47.246,35.267,95.701,68.914,145.256,100.86l109.25-170.664c63.614,40.636,129.328,77.963,196.802,111.75l-45.376,90.562
		c-28.016-13.916-13.802-6.838-30.157-15.358l31.167-59.935C1434.088,4420.364,1398.629,4400.655,1345.575,4367.84z
		 M1636.728,4519.285l-79.733,186.313c-76.983-32.987-152.226-70.023-225.329-110.87l49.425-88.452
		c10.039,5.52,19.928,11.329,30.087,16.619l-32.057,59.454c51.865,28.067,104.96,53.825,158.735,78.013l82.522-185.063
		c68.934,30.697,139.467,57.765,211.22,81.063l-31.287,96.351c-10.709-3.55-21.518-6.83-32.157-10.599l21.828-63.934
		C1738.158,4560.532,1687.133,4540.633,1636.728,4519.285z M1757.236,4674.071c7.632,2.707,57.628,18.942,65.384,21.238
		l49.725-161.365c-75.966-22.711-177.965-61.036-267.165-102.72l-85.292,183.803c-40.902-19.169-70.763-33.932-93.891-46.126
		l15.589-29.967c19.073,9.912-6.5-2.846,61.384,30.887l73.373-152.076c-84.795-42.172-164.599-85.227-248.837-141.646
		l-111.78,169.004c-48.786-32.39-71.446-49.1-85.942-59.654l19.878-27.308c18.378,13.689,37.316,26.598,56.145,39.657
		l95.241-139.427c-95.793-66.399-149.492-110.257-225.169-177.043l-135.637,150.536c-25.838-23.408-51.325-47.236-76.103-71.773
		l23.698-24.058c38.517,37.609,21.004,20.623,49.695,47.496l114.879-123.749c-70.213-64.864-135.607-134.857-196.562-208.441
		l-156.445,128.778c-39.396-48.906-24.544-29.957-64.644-82.222l27.018-20.278c36.349,47.428,29.094,38.065,42.146,54.265
		l131.948-105.35c-63.794-79.429-130.384-178.109-163.305-235.278l-173.854,104.09c-8.561-14.485-31.645-53.204-51.765-90.922
		l29.727-16.038c3.682,7.078,29.473,53.192,33.527,60.024l146.156-84.562c-55.715-97.011-99.589-189.544-126.218-256.936
		l-187.472,76.913c-11.329-27.743-29.702-74.612-37.546-97.671l31.797-11.399c6.982,19.672,2.109,6.658,24.068,64.394
		l157.165-61.724c-0.037-0.1-25.045-64.948-36.677-100.951c-17.47-53.847-34.488-108.577-49.525-171.974l-196.892,47.876
		c-11.042-45.329-19.741-87.345-22.428-102.17l33.147-6.49c4.466,23.326,1.587,9.62,14.149,67.244l164.645-37.427
		c-21.818-100.995-34.415-170.544-44.356-282.854l-201.831,17.938c-4.413-49.785-6.746-95.528-6.979-104.37l33.747-1.49
		c0.923,22.001-0.524-2.261,3.96,68.624l168.394-12.449c-7.379-101.265-7.294-204.269-2.01-286.643l-202.271-11.929
		c1.214-19.214,3.044-53.166,8.379-104.28l33.597,3.49c-0.902,8.023-5.554,60.415-6.089,68.474l168.394,12.439
		c8.256-101.325,14.244-136.563,26.597-213.22c1.317-7.714,10.365-55.729,13.709-70.293l-198.241-41.936
		c4.329-19.901,11.306-52.964,23.868-101.85l32.697,8.469c-1.89,7.172-14.397,58.096-16.208,66.784l164.655,37.427
		c20.269-86.669,44.796-175.522,82.272-274.104l-189.702-71.233c12.159-32.697,25.328-65.014,38.936-97.121l31.057,13.289
		c-4.184,9.254-24.166,58.518-26.158,63.574l157.165,61.734c19.568-49.305,40.806-97.941,63.684-145.806v-0.01
		c18.778-38.047,37.916-75.953,58.864-112.879l-176.883-98.831c15.432-27.602,39.885-69.532,53.055-90.172l28.717,17.778
		c-11.936,19.123-5.777,8.841-35.387,58.934l146.156,84.562c54.909-92.596,92.712-150.211,159.835-237.668L655.98,1073.838
		c7.18-9.567,33.925-43.413,65.884-81.222l25.758,21.858c-26.019,30.927-11.223,12.743-43.686,53.035l131.948,105.36
		c81.971-101.644,133.404-152.571,193.252-211.47L889.088,814.962c44.033-41.806,58.795-54.037,77.243-70.553l22.238,25.428
		c-17.128,15.229-34.417,30.267-51.035,46.056l114.879,123.748c90.569-83.985,188.79-157.78,222.459-180.443l-116.779-165.594
		c48.884-33.667,18.87-13.785,86.792-58.435l18.208,28.447c-43.418,28.517-48.808,31.995-57.285,38.006l95.241,139.427
		c79.925-54.139,162.712-103.474,246.807-145.206l-90.781-181.163c9.165-4.509,49.998-25.175,94.541-44.786l13.759,30.857
		c-10.039,4.263-16.133,7.195-62.384,28.827l73.373,152.086c86.162-41.146,174.764-77.283,265.665-106.49l-62.574-192.722
		c44.966-14.597,88.177-26.945,100.221-30.077l8.969,32.567c-19.685,5.328-7.561,1.785-66.024,19.168l49.725,161.365
		c108.887-33.618,197.947-51.793,278.634-65.434l-32.957-199.931c30.47-5.041,80.418-12.316,103.58-14.719l3.99,33.547
		c-20.869,2.384-8.699,0.742-68.144,9.069l24.968,166.994c94.501-13.829,189.912-22.088,285.583-23.168l-2.98-202.601
		c55.675-0.543,95.564,0.246,104.56,0.68l-1,33.767c-8.435-0.42-10.083-0.377-68.694-1.11v168.854
		c95.396,1.224,174.879,4.352,285.903,19.168l26.948-200.831c22.805,3.195,53.503,7.318,103.38,16.149l-5.99,33.237
		c-6.293-1.15-59.021-9.991-67.834-11.139l-24.968,166.994c6.589,0.84,13.119,2.01,19.658,3.08
		c88.715,14.733,166.665,30.689,259.906,58.325l56.735-194.522c18.438,5.484,54.719,15.951,99.801,31.497l-10.919,31.957
		c-7.609-2.698-57.641-18.938-65.384-21.228l-49.715,161.365c63.641,18.987,173.323,58.813,267.155,102.72l85.292-183.803
		c10.531,4.929,49.754,22.856,93.891,46.126l-15.589,29.967c-19.235-10.034,4.555,1.868-61.384-30.887l-73.363,152.076
		c24.963,12.408,60.419,29.654,95.521,49.155c49.736,27.812,99.974,56.762,153.306,92.491l111.78-169.004
		c51.565,34.235,72.693,50.003,85.942,59.654l-19.878,27.307c-18.378-13.689-37.317-26.597-56.145-39.656l-95.241,139.427
		c106.817,74.008,154.982,115.101,225.169,177.043l135.637-150.536c25.838,23.408,51.325,47.236,76.113,71.763l-23.708,24.068
		c-38.517-37.609-21.004-20.623-49.695-47.496l-114.879,123.748c70.214,64.854,135.607,134.847,196.572,208.431l156.435-128.778
		c39.38,48.897,24.552,29.979,64.645,82.222l-27.008,20.288c-37.124-48.415-28.805-37.7-42.146-54.275l-131.958,105.36
		c72.241,89.867,140.383,195.502,163.305,235.268l173.854-104.08c8.468,14.328,30.25,50.591,51.765,90.922l-29.727,16.028
		c-3.727-7.158-29.417-53.086-33.527-60.014l-146.156,84.562c55.737,97.013,102.4,196.711,126.228,256.936l187.462-76.913
		c19.784,48.448,34.307,88.131,37.546,97.671l-31.797,11.399c-7.13-20.088-2.583-7.896-24.067-64.404l-157.166,61.734
		c8.369,22.358,17.258,44.516,24.917,67.134c23.897,69.114,44.399,134.603,61.284,205.791l196.892-47.885
		c7.252,29.78,18.119,78.392,22.428,102.181l-33.147,6.489c-4.123-21.546-1.922-11.14-14.139-67.244l-164.655,37.426
		c20.205,93.526,34.335,169.652,44.356,282.854l201.841-17.938c2.195,24.753,6.333,80.26,6.969,104.37l-33.737,1.49
		c-0.897-21.39,0.355-0.578-3.97-68.624l-168.394,12.439c7.392,101.44,7.063,207.884,2.009,286.653l202.281,11.929
		c-0.599,9.419-3.135,54.198-8.389,104.28l-33.597-3.49c0.933-8.305,5.537-60.168,6.089-68.474l-168.394-12.449
		c-7.805,95.804-15.273,152.253-33.227,248.417c-2.229,11.729-4.41,23.468-7.08,35.107l198.242,41.936
		c-4.842,22.26-10.79,50.956-23.868,101.85l-32.697-8.479c2.118-8.028,14.279-57.52,16.208-66.774l-164.654-37.427
		c-21.637,92.519-47.269,181.973-82.272,274.104l189.702,71.223c-12.159,32.697-25.317,65.014-38.936,97.131l-31.047-13.289
		c4.177-9.268,24.049-58.254,26.148-63.584l-157.166-61.724c-34.581,87.132-76.583,177.707-122.549,258.696l176.884,98.831
		c-13.426,24.004-38.376,67.152-53.055,90.172l-28.717-17.778c11.936-19.123,5.777-8.841,35.387-58.934l-146.156-84.562
		c-55.72,93.964-92.831,150.308-159.825,237.667l160.205,124.059c-7.581,10.101-33.089,42.424-65.884,81.222l-25.758-21.848
		c26.031-30.94,11.338-12.885,43.686-53.035l-131.948-105.36c-85.093,105.478-135.002,154.168-193.252,211.46l140.047,146.446
		c-44.241,42.003-58.257,53.555-77.243,70.554l-22.238-25.428c17.128-15.229,34.417-30.267,51.035-46.056l-114.879-123.749
		c-81.379,75.443-173.643,147.585-222.459,180.443l116.779,165.594c-49.285,33.943-19.094,13.948-86.792,58.425l-18.208-28.448
		c41.012-26.913,48.496-31.764,57.285-37.996l-95.241-139.427c-78.668,53.268-161.681,102.962-246.807,145.207l90.781,181.163
		c-2.724,1.339-49.056,24.751-94.541,44.775l-13.749-30.847c9.387-3.99,14.494-6.428,62.374-28.837l-73.373-152.076
		c-86.162,41.136-174.754,77.283-265.665,106.48l62.574,192.722c-46.781,15.187-88.862,27.13-100.22,30.077l-8.969-32.557
		c19.902-5.398,9.083-2.233,66.024-19.168l-49.715-161.365c-99.322,30.645-185.126,49.521-278.634,65.434l32.957,199.931
		c-29.36,4.855-80.07,12.269-103.59,14.708l-3.99-33.537c21.345-2.438,7.98-0.659,68.143-9.069l-24.968-166.994
		c-94.501,13.818-189.912,22.088-285.583,23.158l2.98,202.611c-51.631,0.503-93.403-0.152-104.56-0.69l1-33.757
		c8.159,0.407,8.029,0.333,68.694,1.11v-168.854c-104.841-1.374-182.741-5.401-285.903-19.168l-26.948,200.821
		c-22.716-3.173-51.48-6.949-103.38-16.138l5.989-33.237c6.661,1.212,59.033,9.993,67.834,11.139l24.968-166.994
		c-65.872-8.41-184.828-33.344-279.564-61.404l-56.735,194.522c-18.904-5.623-55.917-16.385-99.791-31.497L1757.236,4674.071z
		 M1947.229,4625.355l-50.855,196.171c-81.072-21.058-161.035-46.396-239.448-75.863l35.627-94.861
		c19.27,7.332,11.859,4.622,32.257,11.849l-22.788,63.594c55.435,20.188,111.88,37.537,168.694,53.355l53.795-195.362
		c81.195,22.685,153.742,37.018,220.969,48.465l-16.478,99.951c-11.129-1.89-22.288-3.6-33.387-5.629l11.979-66.474
		C2066.899,4652.756,2008.059,4641.382,1947.229,4625.355z M2270.188,4683.59l-20.938,201.571
		c-83.272-8.669-166.115-21.708-248.047-39.066l20.968-99.131c19.008,4.039,4.34,1.206,33.687,6.839l-12.989,66.294
		c57.825,11.619,116.199,20.348,174.714,27.457l23.948-201.211c74.953,8.909,150.406,13.899,225.949,15.009l-1.49,101.291
		c-11.279-0.22-22.568-0.1-33.837-0.67l1.98-67.524C2414.713,4693.711,2345.884,4691.761,2270.188,4683.59z M2598.458,4693.199
		l8.949,202.461c-83.602,3.669-167.334,3.07-250.887-1.87l5.969-101.151c28.393,1.804,14.282,0.95,34.327,1.79l-2.979,67.494
		c95.439,3.608,164.922,1.885,176.733,1.339l-5.949-202.541c75.503-2.23,150.856-8.37,225.659-18.418l13.479,100.401
		c-20.134,2.771-12.42,1.81-33.597,4.239l-7.989-67.083C2707.837,4686.66,2653.163,4690.56,2598.458,4693.199z M2924.387,4654.363
		l38.946,198.881c-82.192,16.089-165.215,27.838-248.587,35.247l-8.969-100.931c11.399-1.07,22.838-1.9,34.217-3.18l6.979,67.194
		c58.655-6.129,117.049-14.628,175.144-24.828l-35.957-199.411c56.001-10.732,129.177-24.894,220.189-51.905l28.367,97.251
		c-19.486,5.771-12,3.664-32.587,9.229l-17.928-65.134C3036.593,4630.078,2973.763,4644.934,2924.387,4654.363z M3240.718,4567.281
		l68.374,190.772c-78.863,28.227-159.215,52.315-240.597,72.103l-23.948-98.451c11.119-2.77,22.288-5.34,33.367-8.259l16.948,65.394
		c57.084-14.858,113.559-31.977,169.444-50.825l-65.474-191.762c71.393-24.418,141.487-52.605,209.93-84.382l42.636,91.892
		c-10.229,4.75-20.398,9.649-30.777,14.059l-27.508-61.694C3323.245,4536.688,3264.679,4559.133,3240.718,4567.281z
		 M3682.016,4350.451c-46.186,29.417-93.441,57.125-141.547,83.252l96.191,178.374c-73.743,39.706-149.556,75.553-227.049,107.33
		l-38.456-93.741c10.579-4.4,21.278-8.509,31.727-13.219l26.578,62.104c47.999-20.998,113.775-50.772,159.865-75.683
		l-93.481-179.773c66.934-34.847,132.057-73.203,195.022-114.829l55.885,84.492l-28.307,18.588L3682.016,4350.451z M3944.482,4153.3
		c-60.287,52.432-95.786,79.123-127.548,103.48l121.679,162.065c-66.884,50.365-136.587,96.961-208.42,139.987l-52.045-86.942
		c16.609-9.891,6.03-3.335,29.347-17.888l35.557,57.424c51.613-32.533,88.421-56.114,146.786-98.67l-119.239-163.835
		c86.028-62.689,134.229-105.729,175.874-142.506l67.814,75.263l-25.338,22.478L3944.482,4153.3z M4174.86,3919.391
		c-35.467,41.726-72.243,82.383-110.849,121.239l144.356,142.237c-58.745,59.625-120.499,116.309-185.163,169.474l-64.394-78.232
		c8.839-7.29,17.518-14.769,26.288-22.138l43.706,51.505c44.916-38.167,88.662-77.763,130.488-119.299l-142.207-144.346
		c53.785-52.985,104.93-108.68,152.875-167.004l78.213,64.384c-7.189,8.699-14.549,17.249-21.808,25.887L4174.86,3919.391z
		 M4368.012,3653.996c-31.615,49.97-51.738,81.636-91.632,136.287l163.855,119.249c-49.266,67.684-102.041,132.807-158.036,195.031
		l-75.273-67.823l22.808-25.718l50.855,44.466c38.677-44.486,75.983-90.171,111.4-137.317l-162.035-121.659
		c45.425-60.304,87.421-123.158,126.198-187.912l86.922,52.045c-9.868,16.47-1.516,3.097-17.638,28.907L4368.012,3653.996z
		 M4519.448,3362.864c-10.089,22.823-31.816,74.562-70.253,148.396l179.793,93.501c-38.667,74.283-81.212,146.526-127.388,216.37
		l-84.512-55.905l18.868-28.727l56.895,36.417c31.677-49.745,61.534-100.63,89.671-152.466l-178.353-96.171
		c30.851-58.669,65.846-126.661,96.691-204.551l93.721,38.457c-4.339,10.419-8.379,20.968-13.029,31.257L4519.448,3362.864z
		 M4690.922,3069.291l-65.394-16.948c-13.799,52.985-29.697,105.39-47.186,157.275l191.782,65.484
		c-27.107,79.253-58.394,157.075-93.661,233.038l-91.912-42.646c4.82-10.399,9.79-20.728,14.279-31.267l61.694,27.508
		c33.312-76.148,56.317-136.106,65.884-164.165l-190.752-68.364c25.427-71.033,47.115-143.396,64.944-216.7l98.431,23.938
		C4696.321,3047.383,4693.792,3058.382,4690.922,3069.291z M4750.956,2736.352l-67.194-6.979
		c-5.699,54.475-13.599,108.68-23.048,162.595l199.441,35.957c-14.898,82.422-34.137,164.065-57.615,244.467l-97.271-28.367
		c5.843-19.787,3.705-12.187,9.359-33.077l65.134,17.938c15.938-56.795,29.037-114.349,40.496-172.194l-198.852-38.947
		c14.489-74.053,25.087-148.876,31.767-224.079l100.9,8.969C4753.016,2713.874,4752.216,2725.143,4750.956,2736.352z
		 M4897.182,2571.408c-2.46,83.632-9.259,167.184-20.418,250.167l-100.42-13.479c2.82-20.422,1.844-12.592,4.299-34.097
		l67.083,7.979c7.29-58.524,11.539-117.379,14.359-176.243l-202.431-8.939c3.798-100.164,2.344-163.229-1.69-226.499l101.12-5.969
		c1.812,28.365,0.905,13.502,1.77,33.827l-67.483,2.98c1.985,52.58,1.449,31.226,2.31,98.571
		c-0.724,56.659-0.655,57.647-1.07,65.754L4897.182,2571.408z"/>
</g>
</svg>
